<?xml version="1.0" encoding="UTF-8"?>
<svg id="Layer_2" data-name="Layer 2" xmlns="http://www.w3.org/2000/svg" viewBox="0 0 1464.12 491.04">
  <defs>
    <style>
      .cls-1 {
        fill: #fff;
      }
    </style>
  </defs>
  <g id="LOGO">
    <g>
      <g>
        <path class="cls-1" d="M125.87,324.21H0v163.49H37.96v-48.28H125.87c41.96,0,66.93-15.32,66.93-57.61s-24.97-57.61-66.93-57.61Zm0,83.58H37.96v-51.94H125.87c18.65,0,28.3,7.33,28.3,25.97s-9.66,25.97-28.3,25.97Z"/>
        <polygon class="cls-1" points="272.71 421.11 396.58 421.11 396.58 390.48 272.71 390.48 272.71 355.85 405.9 355.85 405.9 324.21 234.75 324.21 234.75 487.71 409.23 487.71 409.23 456.07 272.71 456.07 272.71 421.11"/>
        <rect class="cls-1" x="1171.4" y="324.21" width="37.96" height="163.49"/>
        <path class="cls-1" d="M645.83,381.82c0-43.29-24.97-57.61-66.93-57.61h-125.87v163.49h37.96v-48.28h79.57l34.45,48.28h41.96v-3.33l-35.26-49.37c21.82-7.14,34.12-23.52,34.12-53.19Zm-153.69-25.97h87.91c18.65,0,28.3,7.33,28.3,25.97s-9.66,25.97-28.3,25.97h-87.91v-51.94Z"/>
        <path class="cls-1" d="M1129.38,381.82c0-43.29-24.97-57.61-66.93-57.61h-125.87v163.49h37.96v-48.28h78.43l34.45,48.28h41.96v-3.33l-35.05-49.07c22.4-6.98,35.05-23.4,35.05-53.49Zm-151.76-25.97h87.91c18.65,0,28.3,7.33,28.3,25.97s-9.66,25.97-28.3,25.97h-87.91v-51.94Z"/>
        <path class="cls-1" d="M848.01,419.45c0,30.63-24.64,38.29-61.6,38.29s-60.27-7.66-60.27-38.29v-95.23h-37.96v95.23c0,54.61,38.96,71.59,98.23,71.59s99.56-16.98,99.56-71.59v-95.23h-37.96v95.23Z"/>
      </g>
      <g>
        <polygon class="cls-1" points="1240.26 206.77 1232.73 213.77 1438.94 250.04 1464.12 250.04 1464.12 224.87 1240.26 206.77"/>
        <polygon class="cls-1" points="1031.46 0 1031.46 25.19 1156.41 167.23 1167.03 167.63 1056.65 0 1031.46 0"/>
        <polygon class="cls-1" points="1142.53 189.11 1151.7 184.28 941.59 83.88 916.4 83.88 916.4 109.07 1142.53 189.11"/>
        <polygon class="cls-1" points="1231.85 191.15 1426.18 124.38 1426.18 99.19 1400.99 99.19 1234.92 181.13 1231.85 191.15"/>
        <polygon class="cls-1" points="1222.23 233.69 1333.88 336.93 1359.07 336.93 1359.07 311.74 1232.71 231.32 1222.23 233.69"/>
        <polygon class="cls-1" points="1304.22 59.05 1278.99 59.05 1217.4 161.89 1219.81 172.57 1304.22 84.08 1304.22 59.05"/>
        <polygon class="cls-1" points="1186.12 154.31 1194.23 161.01 1202.99 37.78 1202.99 12.59 1177.8 12.59 1177.8 37.78 1186.12 154.31"/>
        <polygon class="cls-1" points="1141.4 216.27 1147.39 208.48 815.13 199.47 787.08 199.47 787.08 224.66 815.13 224.66 1141.4 216.27"/>
        <polygon class="cls-1" points="1075.01 293.34 1100.84 293.34 1153.35 238.71 1153.8 227.22 1075.01 268.16 1075.01 293.34"/>
      </g>
    </g>
  </g>
</svg>